<?xml version="1.0" encoding="utf-8"?>
<!DOCTYPE svg PUBLIC "-//W3C//DTD SVG 1.0//EN" "http://www.w3.org/TR/2001/REC-SVG-20010904/DTD/svg10.dtd">
<svg aria-labelledby="title desc" fill-rule="evenodd" height="1.818in" preserveAspectRatio="none" stroke-linecap="round" viewBox="0 0 2011 1818" width="2.011in" xmlns="http://www.w3.org/2000/svg" xmlns:xlink="http://www.w3.org/1999/xlink"><title>leisure,people,persons,skaters,speed skating,sports</title><desc>Original keywords: leisure,people,persons,skaters,speed skating,sports. This clipart was ripped from the Microsoft website, then uploaded to https://archive.org/details/MS_Clipart_Collection. (The original WMF file can be found within that item, under the folder MC900188047). From there, it was then converted by Trumad to svg using https://github.com/hidekatsu-izuno/wmf2svg in a bulk operation. All the converted files can be found at https://archive.org/details/MS_Clipart_Collection_SVG</desc>
<style type="text/css">
.brush0 { fill: rgb(255,255,255); }
.pen0 { stroke: rgb(0,0,0); stroke-width: 1; stroke-linejoin: round; }
.brush1 { fill: none; }
.pen1 { stroke: none; }
.brush2 { fill: rgb(0,0,0); }
</style>
<g>
<polygon class="pen1 brush2" points="1504,393 1505,397 1509,406 1514,420 1521,437 1527,455 1533,472 1538,488 1541,500 1544,520 1547,541 1552,561 1563,578 1575,589 1594,606 1617,627 1643,649 1668,670 1691,689 1709,702 1719,709 1726,711 1735,713 1744,714 1754,715 1764,717 1775,719 1785,722 1795,725 1804,731 1813,741 1820,753 1827,766 1832,779 1836,790 1839,797 1840,800 1838,798 1833,793 1825,785 1815,776 1805,767 1793,758 1782,751 1772,746 1762,743 1752,740 1741,738 1731,736 1721,735 1712,733 1703,731 1696,729 1686,723 1668,709 1645,691 1620,670 1594,648 1571,627 1552,610 1541,599 1534,590 1529,579 1524,568 1520,555 1517,542 1515,529 1513,518 1511,507 1508,478 1506,440 1504,407 1504,393"/>
<polygon class="pen1 brush2" points="358,1307 359,1304 361,1297 365,1286 370,1272 376,1258 384,1242 392,1228 401,1216 407,1209 414,1199 422,1187 432,1173 442,1157 454,1139 466,1121 478,1102 491,1083 504,1063 517,1044 529,1026 541,1009 552,994 563,980 572,969 590,951 609,936 628,922 648,910 668,899 688,886 707,873 726,857 743,840 759,823 773,805 787,786 801,765 816,742 831,714 849,683 864,657 878,632 892,610 905,589 918,570 930,553 941,537 952,522 962,509 971,497 980,486 988,477 995,468 1002,460 1008,454 1013,448 1026,433 1038,418 1049,403 1060,388 1071,374 1083,358 1097,342 1112,326 1129,309 1144,296 1159,286 1172,278 1185,272 1199,267 1213,261 1228,255 1243,246 1258,232 1271,216 1286,197 1301,177 1318,157 1337,137 1359,118 1383,103 1406,94 1429,90 1449,88 1467,90 1480,92 1489,94 1492,95 1490,95 1484,95 1475,96 1463,99 1447,104 1429,111 1409,123 1386,138 1364,157 1345,177 1328,197 1313,217 1298,236 1285,252 1270,266 1255,275 1240,281 1226,287 1212,293 1199,299 1186,307 1171,316 1156,329 1139,346 1124,363 1110,379 1098,394 1087,409 1076,424 1065,438 1053,453 1040,468 1035,474 1028,481 1022,488 1014,497 1006,507 997,518 988,530 978,543 967,557 956,573 944,591 932,610 919,630 905,653 891,677 876,703 858,734 842,762 828,785 814,806 800,825 785,843 770,860 753,877 734,893 715,906 695,919 675,930 655,943 636,956 617,972 599,990 590,1001 579,1015 568,1030 556,1047 544,1065 531,1083 518,1103 505,1122 493,1141 481,1159 469,1177 459,1193 449,1207 441,1219 434,1229 428,1236 418,1247 407,1259 395,1271 384,1282 374,1292 365,1300 360,1305 358,1307"/>
<polygon class="pen1 brush2" points="345,1297 340,1301 328,1312 309,1329 286,1352 261,1379 236,1410 213,1443 193,1478 184,1499 178,1518 176,1535 177,1548 182,1559 190,1567 201,1571 215,1572 234,1570 252,1565 269,1559 286,1551 301,1542 315,1533 328,1522 340,1512 350,1502 359,1492 367,1482 374,1474 379,1467 383,1462 385,1458 386,1457 386,1459 384,1463 381,1470 377,1479 372,1490 365,1502 357,1514 347,1527 336,1541 323,1553 307,1565 290,1576 271,1585 250,1592 226,1596 200,1598 182,1595 167,1589 153,1578 143,1564 137,1548 136,1528 142,1507 154,1483 171,1458 189,1434 206,1413 223,1394 239,1377 255,1362 270,1348 284,1337 297,1327 309,1318 319,1312 328,1306 335,1302 341,1299 344,1298 345,1297"/>
<polygon class="pen1 brush2" points="358,1318 357,1304 359,1291 364,1278 372,1267 362,1273 354,1280 347,1287 342,1296 338,1305 336,1315 335,1324 337,1334 342,1346 349,1357 359,1367 371,1374 384,1380 398,1383 413,1384 429,1382 436,1380 443,1378 449,1375 456,1372 461,1368 467,1365 472,1360 476,1356 470,1359 464,1361 457,1363 450,1365 434,1367 419,1366 405,1363 392,1357 380,1350 370,1341 363,1330 358,1318"/>
<polygon class="pen1 brush2" points="11,1691 0,1740 41,1730 177,1562 11,1691"/>
<polygon class="pen1 brush2" points="1310,695 1308,695 1302,696 1293,698 1280,702 1265,708 1247,717 1227,730 1205,746 1193,757 1178,771 1162,788 1144,807 1125,827 1105,849 1085,872 1064,895 1044,918 1023,940 1004,961 986,980 970,997 955,1012 942,1023 932,1031 914,1042 895,1051 877,1059 859,1066 842,1073 828,1080 816,1087 807,1096 799,1107 789,1121 777,1137 763,1153 747,1171 731,1187 714,1203 696,1216 686,1223 673,1231 658,1240 641,1249 623,1259 604,1270 585,1281 566,1291 548,1301 530,1311 514,1319 500,1327 489,1333 480,1338 474,1341 472,1342 474,1341 479,1337 487,1331 497,1324 509,1315 523,1304 539,1293 555,1281 572,1269 589,1256 606,1244 622,1232 637,1221 651,1211 663,1203 673,1196 691,1182 708,1167 724,1150 740,1133 754,1116 766,1101 776,1087 784,1076 793,1067 805,1060 819,1053 836,1046 854,1039 872,1031 891,1022 909,1011 919,1003 932,991 947,977 963,959 981,940 1000,919 1021,897 1041,874 1062,852 1082,829 1102,807 1121,787 1139,768 1155,751 1170,737 1182,726 1205,711 1227,700 1249,695 1269,692 1285,692 1298,693 1307,694 1310,695"/>
<polygon class="pen1 brush2" points="1278,1317 1277,1307 1275,1282 1275,1250 1278,1218 1283,1183 1288,1140 1294,1097 1301,1060 1305,1045 1310,1030 1316,1016 1322,1002 1329,989 1336,975 1344,961 1352,946 1361,916 1360,885 1353,857 1345,833 1340,820 1333,805 1325,789 1316,773 1308,758 1301,746 1297,738 1295,735 1298,738 1308,745 1321,756 1337,769 1353,784 1367,799 1379,813 1385,825 1389,837 1394,850 1398,864 1401,878 1403,893 1402,909 1399,924 1392,939 1384,953 1376,967 1369,981 1363,994 1357,1008 1351,1023 1346,1037 1342,1053 1338,1070 1335,1090 1331,1111 1328,1133 1324,1156 1320,1179 1316,1202 1310,1223 1305,1238 1300,1253 1295,1269 1290,1284 1285,1297 1281,1308 1279,1314 1278,1317"/>
<polygon class="pen1 brush2" points="1507,1156 1517,1136 1525,1108 1530,1075 1534,1040 1537,1005 1540,972 1543,945 1547,925 1552,910 1559,895 1567,881 1576,869 1583,859 1590,852 1594,847 1596,845 1595,855 1591,879 1585,912 1577,945 1574,963 1572,986 1571,1014 1570,1045 1566,1077 1561,1111 1552,1144 1538,1176 1517,1214 1492,1251 1467,1285 1443,1317 1421,1344 1403,1365 1391,1378 1387,1383 1389,1377 1396,1360 1407,1335 1422,1303 1440,1267 1460,1229 1483,1192 1507,1156"/>
<polygon class="pen1 brush2" points="1404,1473 1404,1477 1403,1487 1401,1502 1397,1519 1390,1537 1380,1554 1365,1569 1345,1578 1332,1580 1317,1578 1300,1574 1283,1567 1267,1558 1252,1547 1239,1534 1230,1518 1226,1499 1227,1475 1232,1449 1238,1423 1246,1399 1253,1379 1258,1365 1260,1360 1256,1365 1245,1378 1231,1399 1216,1425 1204,1455 1196,1488 1197,1521 1209,1554 1222,1572 1238,1587 1256,1599 1276,1608 1297,1615 1318,1618 1339,1618 1359,1615 1380,1604 1394,1586 1403,1563 1407,1538 1407,1513 1406,1493 1405,1478 1404,1473"/>
<polygon class="pen1 brush2" points="1342,1354 1328,1348 1315,1341 1304,1333 1293,1324 1284,1315 1277,1305 1272,1295 1268,1285 1267,1288 1265,1291 1264,1294 1263,1297 1263,1309 1267,1321 1273,1334 1282,1346 1293,1357 1306,1368 1321,1377 1338,1384 1355,1389 1371,1392 1386,1392 1399,1389 1411,1385 1420,1378 1426,1370 1430,1359 1430,1354 1430,1350 1429,1345 1428,1341 1422,1348 1415,1354 1406,1358 1395,1361 1383,1362 1370,1361 1356,1358 1342,1354"/>
<polygon class="pen1 brush2" points="1811,879 1796,881 1779,880 1763,876 1746,872 1730,866 1716,860 1703,854 1693,849 1685,844 1678,839 1672,833 1666,827 1661,820 1655,812 1648,803 1641,793 1639,790 1636,787 1632,784 1628,781 1629,774 1630,768 1632,761 1635,755 1640,744 1646,735 1654,726 1662,719 1670,713 1679,708 1688,705 1697,704 1694,702 1691,700 1688,699 1685,697 1674,695 1663,696 1652,699 1641,705 1631,712 1622,722 1614,733 1607,746 1606,750 1605,753 1603,757 1602,761 1589,752 1575,742 1559,732 1543,722 1527,711 1510,700 1493,689 1477,678 1461,667 1446,657 1432,647 1419,638 1408,629 1398,621 1390,614 1385,608 1374,585 1361,549 1349,504 1337,456 1326,410 1318,371 1312,343 1310,333 1309,341 1308,363 1308,397 1310,439 1314,487 1322,537 1336,588 1355,636 1361,645 1371,655 1385,666 1401,678 1419,691 1440,705 1461,719 1483,733 1505,747 1526,761 1547,773 1565,786 1581,797 1595,806 1605,815 1611,821 1618,831 1625,840 1630,848 1636,855 1641,861 1647,867 1654,872 1662,877 1673,883 1687,890 1703,897 1721,904 1740,911 1759,915 1777,917 1793,916 1807,911 1820,904 1832,896 1842,887 1850,879 1857,872 1861,867 1862,865 1861,865 1860,866 1856,867 1851,869 1844,871 1835,873 1824,876 1811,879"/>
<polygon class="pen1 brush2" points="1270,1590 1210,1780 1233,1818 1265,1800 1293,1603 1270,1590"/>
<polygon class="pen1 brush2" points="1623,607 1624,604 1625,597 1628,586 1633,573 1639,560 1647,548 1657,539 1670,534 1683,531 1696,526 1709,520 1722,512 1737,503 1755,493 1774,480 1798,466 1807,461 1814,457 1822,453 1831,449 1843,445 1859,440 1880,434 1909,426 1942,414 1967,400 1984,383 1994,365 1999,347 1999,328 1996,308 1990,290 1981,274 1966,258 1948,243 1928,229 1909,218 1893,209 1881,203 1877,201 1838,197 1842,199 1854,204 1871,212 1891,223 1910,235 1927,250 1940,265 1946,282 1948,299 1949,318 1949,336 1946,354 1938,371 1924,387 1904,400 1876,410 1847,418 1823,425 1806,432 1792,437 1781,443 1772,448 1764,454 1755,459 1732,473 1713,484 1697,493 1684,501 1672,507 1661,511 1649,515 1636,518 1625,524 1618,535 1616,549 1616,565 1617,581 1620,594 1622,603 1623,607"/>
<polygon class="pen1 brush2" points="1792,238 1788,219 1782,201 1775,184 1767,168 1758,152 1747,138 1736,124 1725,112 1712,101 1699,91 1686,83 1672,76 1658,71 1643,68 1629,66 1614,66 1591,70 1570,80 1551,94 1536,111 1523,133 1514,157 1508,184 1506,213 1504,175 1508,139 1518,105 1532,74 1550,48 1572,27 1597,13 1626,6 1642,6 1659,8 1675,12 1691,17 1707,25 1723,34 1738,45 1753,57 1767,70 1780,85 1792,101 1803,118 1812,136 1820,155 1827,175 1832,196 1837,236 1835,274 1827,311 1813,344 1795,373 1773,397 1747,414 1719,424 1740,413 1758,397 1773,378 1784,355 1792,329 1796,301 1796,270 1792,238"/>
<polygon class="pen1 brush2" points="1644,158 1626,162 1608,166 1591,170 1575,175 1559,180 1544,185 1530,190 1517,195 1504,201 1493,206 1483,212 1474,218 1466,223 1460,229 1455,235 1451,240 1465,233 1480,226 1497,220 1516,213 1535,207 1555,202 1577,197 1599,192 1611,190 1624,188 1636,186 1648,184 1660,182 1671,181 1682,180 1693,179 1704,179 1714,178 1724,178 1733,178 1742,179 1751,179 1759,180 1767,181 1764,171 1760,162 1755,153 1750,144 1738,145 1726,146 1713,147 1700,149 1686,151 1672,153 1658,155 1644,158"/>
<polygon class="pen1 brush2" points="38,912 39,923 41,934 45,946 51,957 57,968 66,979 76,990 87,1001 79,987 73,974 69,960 68,947 69,934 71,921 76,909 82,896 91,883 101,871 113,859 127,846 142,834 159,823 178,811 199,799 221,788 245,777 270,765 297,755 325,744 355,734 386,723 418,713 452,704 487,694 524,685 561,676 600,667 640,659 681,650 724,642 767,635 811,628 857,621 903,614 923,590 874,596 827,601 780,608 735,614 690,621 647,629 605,636 564,644 524,653 486,661 448,670 413,679 378,689 345,699 314,709 284,719 256,730 229,740 203,751 180,763 158,774 138,786 119,798 103,810 88,822 75,834 64,847 55,860 47,873 42,886 39,899 38,912"/>
</g>
</svg>